<svg width="984" height="1297" viewBox="0 0 984 1297" fill="none" xmlns="http://www.w3.org/2000/svg">
<rect x="7.5" y="252.5" width="95" height="995" stroke="#737370" stroke-width="5"/>
<rect x="437.5" y="2.5" width="95" height="1245" stroke="#737370" stroke-width="5"/>
<rect x="875.5" y="102.5" width="95" height="1145" stroke="#737370" stroke-width="5"/>
<rect x="125" y="500" width="100" height="750" fill="#006CA9"/>
<rect x="558" y="150" width="100" height="1100" fill="#006CA9"/>
<rect x="127.5" y="252.5" width="95" height="245" stroke="#006CA9" stroke-width="5" stroke-dasharray="10 10"/>
<rect x="560.5" y="2.5" width="95" height="145" stroke="#006CA9" stroke-width="5" stroke-dasharray="10 10"/>
<path d="M442.984 124.602C442.764 121.849 440.354 119.796 437.602 120.016L392.745 123.601C389.992 123.821 387.939 126.23 388.159 128.983C388.379 131.736 390.789 133.789 393.541 133.569L433.414 130.382L436.601 170.255C436.821 173.008 439.23 175.061 441.983 174.841C444.736 174.621 446.789 172.211 446.569 169.459L442.984 124.602ZM228.806 378.243L441.806 128.243L434.194 121.757L221.194 371.757L228.806 378.243Z" fill="#82D1F5"/>
<path d="M872.698 179.703C875.295 178.765 876.641 175.899 875.703 173.302L860.422 130.976C859.485 128.379 856.619 127.033 854.021 127.971C851.424 128.909 850.079 131.774 851.016 134.372L864.599 171.995L826.976 185.578C824.379 186.515 823.033 189.381 823.971 191.979C824.909 194.576 827.774 195.921 830.372 194.984L872.698 179.703ZM655.875 79.526L868.875 179.526L873.125 170.474L660.125 70.474L655.875 79.526Z" fill="#82D1F5"/>
<path d="M14.7212 765V760.568L25.0763 750.98C25.957 750.128 26.6957 749.361 27.2923 748.679C27.8983 747.997 28.3576 747.33 28.6701 746.676C28.9826 746.013 29.1388 745.298 29.1388 744.531C29.1388 743.679 28.9447 742.945 28.5565 742.33C28.1682 741.705 27.6379 741.226 26.9656 740.895C26.2932 740.554 25.5309 740.384 24.6786 740.384C23.7885 740.384 23.012 740.563 22.3491 740.923C21.6862 741.283 21.1748 741.799 20.815 742.472C20.4551 743.144 20.2752 743.944 20.2752 744.872H14.4371C14.4371 742.969 14.868 741.316 15.7298 739.915C16.5915 738.513 17.7989 737.429 19.3519 736.662C20.9049 735.895 22.6947 735.511 24.7212 735.511C26.8046 735.511 28.618 735.881 30.1616 736.619C31.7146 737.348 32.922 738.362 33.7837 739.659C34.6455 740.956 35.0764 742.443 35.0764 744.119C35.0764 745.218 34.8585 746.302 34.4229 747.372C33.9968 748.442 33.2345 749.631 32.136 750.938C31.0375 752.235 29.4892 753.793 27.4911 755.611L23.244 759.773V759.972H35.4599V765H14.7212ZM51.3228 765.639C48.8796 765.63 46.7773 765.028 45.016 763.835C43.2641 762.642 41.9147 760.914 40.9677 758.651C40.0302 756.387 39.5662 753.665 39.5756 750.483C39.5756 747.311 40.0444 744.607 40.9819 742.372C41.9289 740.137 43.2783 738.437 45.0302 737.273C46.7915 736.098 48.8891 735.511 51.3228 735.511C53.7565 735.511 55.8493 736.098 57.6012 737.273C59.3626 738.447 60.7167 740.152 61.6637 742.386C62.6107 744.612 63.0794 747.311 63.07 750.483C63.07 753.674 62.5965 756.402 61.6495 758.665C60.712 760.928 59.3673 762.656 57.6154 763.849C55.8635 765.043 53.766 765.639 51.3228 765.639ZM51.3228 760.54C52.9895 760.54 54.32 759.702 55.3143 758.026C56.3086 756.349 56.801 753.835 56.7915 750.483C56.7915 748.277 56.5643 746.439 56.1097 744.972C55.6647 743.504 55.0302 742.401 54.2063 741.662C53.3919 740.923 52.4308 740.554 51.3228 740.554C49.6656 740.554 48.3398 741.383 47.3455 743.04C46.3512 744.697 45.8493 747.178 45.8398 750.483C45.8398 752.718 46.0624 754.583 46.5075 756.08C46.962 757.566 47.6012 758.684 48.4251 759.432C49.2489 760.17 50.2148 760.54 51.3228 760.54ZM78.8619 765.639C76.4187 765.63 74.3164 765.028 72.555 763.835C70.8031 762.642 69.4537 760.914 68.5067 758.651C67.5692 756.387 67.1052 753.665 67.1147 750.483C67.1147 747.311 67.5835 744.607 68.521 742.372C69.4679 740.137 70.8174 738.437 72.5692 737.273C74.3306 736.098 76.4281 735.511 78.8619 735.511C81.2956 735.511 83.3884 736.098 85.1403 737.273C86.9016 738.447 88.2558 740.152 89.2028 742.386C90.1497 744.612 90.6185 747.311 90.609 750.483C90.609 753.674 90.1355 756.402 89.1886 758.665C88.2511 760.928 86.9064 762.656 85.1545 763.849C83.4026 765.043 81.305 765.639 78.8619 765.639ZM78.8619 760.54C80.5285 760.54 81.859 759.702 82.8533 758.026C83.8477 756.349 84.3401 753.835 84.3306 750.483C84.3306 748.277 84.1033 746.439 83.6488 744.972C83.2037 743.504 82.5692 742.401 81.7454 741.662C80.931 740.923 79.9698 740.554 78.8619 740.554C77.2047 740.554 75.8789 741.383 74.8846 743.04C73.8903 744.697 73.3884 747.178 73.3789 750.483C73.3789 752.718 73.6014 754.583 74.0465 756.08C74.5011 757.566 75.1403 758.684 75.9641 759.432C76.788 760.17 77.7539 760.54 78.8619 760.54Z" fill="#006CA9"/>
<path d="M450.6 765V760.568L460.955 750.98C461.836 750.128 462.575 749.361 463.171 748.679C463.777 747.997 464.237 747.33 464.549 746.676C464.862 746.013 465.018 745.298 465.018 744.531C465.018 743.679 464.824 742.945 464.435 742.33C464.047 741.705 463.517 741.226 462.844 740.895C462.172 740.554 461.41 740.384 460.558 740.384C459.667 740.384 458.891 740.563 458.228 740.923C457.565 741.283 457.054 741.799 456.694 742.472C456.334 743.144 456.154 743.944 456.154 744.872H450.316C450.316 742.969 450.747 741.316 451.609 739.915C452.47 738.513 453.678 737.429 455.231 736.662C456.784 735.895 458.574 735.511 460.6 735.511C462.683 735.511 464.497 735.881 466.04 736.619C467.594 737.348 468.801 738.362 469.663 739.659C470.524 740.956 470.955 742.443 470.955 744.119C470.955 745.218 470.737 746.302 470.302 747.372C469.876 748.442 469.113 749.631 468.015 750.938C466.916 752.235 465.368 753.793 463.37 755.611L459.123 759.773V759.972H471.339V765H450.6ZM486.42 765.398C484.413 765.398 482.623 765.028 481.051 764.29C479.489 763.551 478.248 762.533 477.33 761.236C476.411 759.938 475.933 758.452 475.895 756.776H481.861C481.927 757.902 482.401 758.816 483.281 759.517C484.162 760.218 485.208 760.568 486.42 760.568C487.386 760.568 488.239 760.355 488.977 759.929C489.725 759.493 490.308 758.892 490.724 758.125C491.151 757.348 491.364 756.458 491.364 755.455C491.364 754.432 491.146 753.532 490.71 752.756C490.284 751.979 489.692 751.373 488.935 750.938C488.177 750.502 487.311 750.279 486.335 750.27C485.483 750.27 484.654 750.445 483.849 750.795C483.054 751.146 482.434 751.624 481.989 752.23L476.52 751.25L477.898 735.909H495.682V740.938H482.969L482.216 748.224H482.386C482.898 747.505 483.67 746.908 484.702 746.435C485.734 745.961 486.889 745.724 488.168 745.724C489.92 745.724 491.482 746.136 492.855 746.96C494.228 747.784 495.312 748.916 496.108 750.355C496.903 751.785 497.296 753.433 497.287 755.298C497.296 757.259 496.842 759.001 495.923 760.526C495.014 762.041 493.741 763.234 492.102 764.105C490.473 764.967 488.58 765.398 486.42 765.398ZM512.983 765.639C510.54 765.63 508.438 765.028 506.676 763.835C504.924 762.642 503.575 760.914 502.628 758.651C501.69 756.387 501.226 753.665 501.236 750.483C501.236 747.311 501.705 744.607 502.642 742.372C503.589 740.137 504.938 738.437 506.69 737.273C508.452 736.098 510.549 735.511 512.983 735.511C515.417 735.511 517.509 736.098 519.261 737.273C521.023 738.447 522.377 740.152 523.324 742.386C524.271 744.612 524.74 747.311 524.73 750.483C524.73 753.674 524.257 756.402 523.31 758.665C522.372 760.928 521.027 762.656 519.276 763.849C517.524 765.043 515.426 765.639 512.983 765.639ZM512.983 760.54C514.65 760.54 515.98 759.702 516.974 758.026C517.969 756.349 518.461 753.835 518.452 750.483C518.452 748.277 518.224 746.439 517.77 744.972C517.325 743.504 516.69 742.401 515.866 741.662C515.052 740.923 514.091 740.554 512.983 740.554C511.326 740.554 510 741.383 509.006 743.04C508.011 744.697 507.509 747.178 507.5 750.483C507.5 752.718 507.723 754.583 508.168 756.08C508.622 757.566 509.261 758.684 510.085 759.432C510.909 760.17 511.875 760.54 512.983 760.54Z" fill="#006CA9"/>
<path d="M156.069 735.909V765H149.918V741.747H149.748L143.086 745.923V740.469L150.288 735.909H156.069ZM173.608 765.398C171.6 765.398 169.811 765.028 168.239 764.29C166.676 763.551 165.436 762.533 164.517 761.236C163.598 759.938 163.12 758.452 163.082 756.776H169.048C169.115 757.902 169.588 758.816 170.469 759.517C171.349 760.218 172.396 760.568 173.608 760.568C174.574 760.568 175.426 760.355 176.165 759.929C176.913 759.493 177.495 758.892 177.912 758.125C178.338 757.348 178.551 756.458 178.551 755.455C178.551 754.432 178.333 753.532 177.898 752.756C177.472 751.979 176.88 751.373 176.122 750.938C175.365 750.502 174.498 750.279 173.523 750.27C172.67 750.27 171.842 750.445 171.037 750.795C170.241 751.146 169.621 751.624 169.176 752.23L163.707 751.25L165.085 735.909H182.869V740.938H170.156L169.403 748.224H169.574C170.085 747.505 170.857 746.908 171.889 746.435C172.921 745.961 174.077 745.724 175.355 745.724C177.107 745.724 178.67 746.136 180.043 746.96C181.416 747.784 182.5 748.916 183.295 750.355C184.091 751.785 184.484 753.433 184.474 755.298C184.484 757.259 184.029 759.001 183.111 760.526C182.202 762.041 180.928 763.234 179.29 764.105C177.661 764.967 175.767 765.398 173.608 765.398ZM200.17 765.639C197.727 765.63 195.625 765.028 193.864 763.835C192.112 762.642 190.762 760.914 189.815 758.651C188.878 756.387 188.414 753.665 188.423 750.483C188.423 747.311 188.892 744.607 189.83 742.372C190.777 740.137 192.126 738.437 193.878 737.273C195.639 736.098 197.737 735.511 200.17 735.511C202.604 735.511 204.697 736.098 206.449 737.273C208.21 738.447 209.564 740.152 210.511 742.386C211.458 744.612 211.927 747.311 211.918 750.483C211.918 753.674 211.444 756.402 210.497 758.665C209.56 760.928 208.215 762.656 206.463 763.849C204.711 765.043 202.614 765.639 200.17 765.639ZM200.17 760.54C201.837 760.54 203.168 759.702 204.162 758.026C205.156 756.349 205.649 753.835 205.639 750.483C205.639 748.277 205.412 746.439 204.957 744.972C204.512 743.504 203.878 742.401 203.054 741.662C202.24 740.923 201.278 740.554 200.17 740.554C198.513 740.554 197.188 741.383 196.193 743.04C195.199 744.697 194.697 747.178 194.688 750.483C194.688 752.718 194.91 754.583 195.355 756.08C195.81 757.566 196.449 758.684 197.273 759.432C198.097 760.17 199.062 760.54 200.17 760.54Z" fill="#82D1F5"/>
<path d="M568.893 765V760.568L579.248 750.98C580.129 750.128 580.868 749.361 581.464 748.679C582.07 747.997 582.529 747.33 582.842 746.676C583.154 746.013 583.311 745.298 583.311 744.531C583.311 743.679 583.117 742.945 582.728 742.33C582.34 741.705 581.81 741.226 581.137 740.895C580.465 740.554 579.703 740.384 578.85 740.384C577.96 740.384 577.184 740.563 576.521 740.923C575.858 741.283 575.347 741.799 574.987 742.472C574.627 743.144 574.447 743.944 574.447 744.872H568.609C568.609 742.969 569.04 741.316 569.902 739.915C570.763 738.513 571.971 737.429 573.524 736.662C575.077 735.895 576.867 735.511 578.893 735.511C580.976 735.511 582.79 735.881 584.333 736.619C585.886 737.348 587.094 738.362 587.956 739.659C588.817 740.956 589.248 742.443 589.248 744.119C589.248 745.218 589.03 746.302 588.595 747.372C588.169 748.442 587.406 749.631 586.308 750.938C585.209 752.235 583.661 753.793 581.663 755.611L577.416 759.773V759.972H589.632V765H568.893ZM594.088 765V760.568L604.444 750.98C605.324 750.128 606.063 749.361 606.659 748.679C607.266 747.997 607.725 747.33 608.037 746.676C608.35 746.013 608.506 745.298 608.506 744.531C608.506 743.679 608.312 742.945 607.924 742.33C607.535 741.705 607.005 741.226 606.333 740.895C605.66 740.554 604.898 740.384 604.046 740.384C603.156 740.384 602.379 740.563 601.716 740.923C601.053 741.283 600.542 741.799 600.182 742.472C599.822 743.144 599.642 743.944 599.642 744.872H593.804C593.804 742.969 594.235 741.316 595.097 739.915C595.959 738.513 597.166 737.429 598.719 736.662C600.272 735.895 602.062 735.511 604.088 735.511C606.172 735.511 607.985 735.881 609.529 736.619C611.082 737.348 612.289 738.362 613.151 739.659C614.013 740.956 614.444 742.443 614.444 744.119C614.444 745.218 614.226 746.302 613.79 747.372C613.364 748.442 612.602 749.631 611.503 750.938C610.405 752.235 608.856 753.793 606.858 755.611L602.611 759.773V759.972H614.827V765H594.088ZM630.69 765.639C628.247 765.63 626.145 765.028 624.383 763.835C622.631 762.642 621.282 760.914 620.335 758.651C619.397 756.387 618.933 753.665 618.943 750.483C618.943 747.311 619.412 744.607 620.349 742.372C621.296 740.137 622.645 738.437 624.397 737.273C626.159 736.098 628.256 735.511 630.69 735.511C633.124 735.511 635.217 736.098 636.968 737.273C638.73 738.447 640.084 740.152 641.031 742.386C641.978 744.612 642.447 747.311 642.437 750.483C642.437 753.674 641.964 756.402 641.017 758.665C640.079 760.928 638.734 762.656 636.983 763.849C635.231 765.043 633.133 765.639 630.69 765.639ZM630.69 760.54C632.357 760.54 633.687 759.702 634.681 758.026C635.676 756.349 636.168 753.835 636.159 750.483C636.159 748.277 635.931 746.439 635.477 744.972C635.032 743.504 634.397 742.401 633.574 741.662C632.759 740.923 631.798 740.554 630.69 740.554C629.033 740.554 627.707 741.383 626.713 743.04C625.718 744.697 625.217 747.178 625.207 750.483C625.207 752.718 625.43 754.583 625.875 756.08C626.329 757.566 626.968 758.684 627.792 759.432C628.616 760.17 629.582 760.54 630.69 760.54Z" fill="#82D1F5"/>
<path d="M163.823 390.398C161.815 390.398 160.025 390.028 158.453 389.29C156.891 388.551 155.65 387.533 154.732 386.236C153.813 384.938 153.335 383.452 153.297 381.776H159.263C159.329 382.902 159.803 383.816 160.684 384.517C161.564 385.218 162.611 385.568 163.823 385.568C164.789 385.568 165.641 385.355 166.38 384.929C167.128 384.493 167.71 383.892 168.127 383.125C168.553 382.348 168.766 381.458 168.766 380.455C168.766 379.432 168.548 378.532 168.113 377.756C167.686 376.979 167.095 376.373 166.337 375.938C165.579 375.502 164.713 375.279 163.738 375.27C162.885 375.27 162.057 375.445 161.252 375.795C160.456 376.146 159.836 376.624 159.391 377.23L153.922 376.25L155.3 360.909H173.084V365.938H160.371L159.618 373.224H159.789C160.3 372.505 161.072 371.908 162.104 371.435C163.136 370.961 164.292 370.724 165.57 370.724C167.322 370.724 168.884 371.136 170.257 371.96C171.631 372.784 172.715 373.916 173.51 375.355C174.306 376.785 174.699 378.433 174.689 380.298C174.699 382.259 174.244 384.001 173.326 385.526C172.417 387.041 171.143 388.234 169.505 389.105C167.876 389.967 165.982 390.398 163.823 390.398ZM190.385 390.639C187.942 390.63 185.84 390.028 184.078 388.835C182.327 387.642 180.977 385.914 180.03 383.651C179.093 381.387 178.629 378.665 178.638 375.483C178.638 372.311 179.107 369.607 180.044 367.372C180.991 365.137 182.341 363.437 184.093 362.273C185.854 361.098 187.952 360.511 190.385 360.511C192.819 360.511 194.912 361.098 196.664 362.273C198.425 363.447 199.779 365.152 200.726 367.386C201.673 369.612 202.142 372.311 202.132 375.483C202.132 378.674 201.659 381.402 200.712 383.665C199.775 385.928 198.43 387.656 196.678 388.849C194.926 390.043 192.828 390.639 190.385 390.639ZM190.385 385.54C192.052 385.54 193.382 384.702 194.377 383.026C195.371 381.349 195.864 378.835 195.854 375.483C195.854 373.277 195.627 371.439 195.172 369.972C194.727 368.504 194.093 367.401 193.269 366.662C192.454 365.923 191.493 365.554 190.385 365.554C188.728 365.554 187.402 366.383 186.408 368.04C185.414 369.697 184.912 372.178 184.902 375.483C184.902 377.718 185.125 379.583 185.57 381.08C186.025 382.566 186.664 383.684 187.488 384.432C188.311 385.17 189.277 385.54 190.385 385.54Z" fill="#737370"/>
<path d="M592.658 87.3977C590.536 87.3977 588.647 87.0331 586.99 86.304C585.342 85.5653 584.04 84.5521 583.084 83.2642C582.137 81.9669 581.649 80.4706 581.621 78.7756H587.814C587.852 79.4858 588.084 80.1108 588.51 80.6506C588.946 81.1809 589.523 81.5928 590.243 81.8864C590.963 82.1799 591.772 82.3267 592.672 82.3267C593.609 82.3267 594.438 82.161 595.158 81.8295C595.877 81.4981 596.441 81.0388 596.848 80.4517C597.255 79.8646 597.459 79.1875 597.459 78.4205C597.459 77.6439 597.241 76.9574 596.805 76.3608C596.379 75.7547 595.764 75.2812 594.959 74.9403C594.163 74.5994 593.216 74.429 592.118 74.429H589.405V69.9119H592.118C593.046 69.9119 593.865 69.7509 594.575 69.429C595.295 69.107 595.854 68.6619 596.251 68.0938C596.649 67.5161 596.848 66.8438 596.848 66.0767C596.848 65.3475 596.673 64.7083 596.322 64.1591C595.982 63.6004 595.499 63.1648 594.874 62.8523C594.258 62.5398 593.538 62.3835 592.714 62.3835C591.881 62.3835 591.119 62.535 590.428 62.8381C589.736 63.1316 589.182 63.553 588.766 64.1023C588.349 64.6515 588.126 65.2955 588.098 66.0341H582.203C582.232 64.358 582.71 62.8807 583.638 61.6023C584.566 60.3239 585.816 59.3248 587.388 58.6051C588.969 57.8759 590.754 57.5114 592.743 57.5114C594.75 57.5114 596.507 57.8759 598.013 58.6051C599.518 59.3343 600.688 60.3191 601.521 61.5597C602.364 62.7907 602.781 64.1733 602.771 65.7074C602.781 67.3362 602.274 68.6951 601.251 69.7841C600.238 70.8731 598.917 71.5644 597.288 71.858V72.0852C599.429 72.3598 601.057 73.1032 602.175 74.3153C603.302 75.518 603.86 77.0237 603.851 78.8324C603.86 80.4896 603.382 81.9621 602.416 83.25C601.46 84.5379 600.139 85.5511 598.453 86.2898C596.768 87.0284 594.836 87.3977 592.658 87.3977ZM619.678 87.6392C617.235 87.6297 615.133 87.0284 613.371 85.8352C611.62 84.642 610.27 82.9138 609.323 80.6506C608.386 78.3873 607.922 75.6648 607.931 72.483C607.931 69.3106 608.4 66.607 609.337 64.3722C610.284 62.1373 611.634 60.4375 613.386 59.2727C615.147 58.0985 617.245 57.5114 619.678 57.5114C622.112 57.5114 624.205 58.0985 625.957 59.2727C627.718 60.447 629.072 62.1515 630.019 64.3864C630.966 66.6117 631.435 69.3106 631.425 72.483C631.425 75.6742 630.952 78.4015 630.005 80.6648C629.067 82.928 627.723 84.6562 625.971 85.8494C624.219 87.0426 622.121 87.6392 619.678 87.6392ZM619.678 82.5398C621.345 82.5398 622.675 81.7017 623.67 80.0256C624.664 78.3494 625.156 75.8352 625.147 72.483C625.147 70.2765 624.92 68.4394 624.465 66.9716C624.02 65.5038 623.386 64.4006 622.562 63.6619C621.747 62.9233 620.786 62.554 619.678 62.554C618.021 62.554 616.695 63.3826 615.701 65.0398C614.707 66.697 614.205 69.178 614.195 72.483C614.195 74.7178 614.418 76.5833 614.863 78.0795C615.317 79.5663 615.957 80.6837 616.781 81.4318C617.604 82.1705 618.57 82.5398 619.678 82.5398Z" fill="#737370"/>
<path d="M883.307 765V760.568L893.662 750.98C894.543 750.128 895.282 749.361 895.878 748.679C896.484 747.997 896.944 747.33 897.256 746.676C897.569 746.013 897.725 745.298 897.725 744.531C897.725 743.679 897.531 742.945 897.142 742.33C896.754 741.705 896.224 741.226 895.551 740.895C894.879 740.554 894.117 740.384 893.265 740.384C892.374 740.384 891.598 740.563 890.935 740.923C890.272 741.283 889.761 741.799 889.401 742.472C889.041 743.144 888.861 743.944 888.861 744.872H883.023C883.023 742.969 883.454 741.316 884.316 739.915C885.177 738.513 886.385 737.429 887.938 736.662C889.491 735.895 891.281 735.511 893.307 735.511C895.391 735.511 897.204 735.881 898.748 736.619C900.301 737.348 901.508 738.362 902.37 739.659C903.231 740.956 903.662 742.443 903.662 744.119C903.662 745.218 903.444 746.302 903.009 747.372C902.583 748.442 901.82 749.631 900.722 750.938C899.623 752.235 898.075 753.793 896.077 755.611L891.83 759.773V759.972H904.046V765H883.307ZM919.255 765.398C917.134 765.398 915.245 765.033 913.588 764.304C911.94 763.565 910.638 762.552 909.681 761.264C908.734 759.967 908.247 758.471 908.218 756.776H914.412C914.449 757.486 914.681 758.111 915.108 758.651C915.543 759.181 916.121 759.593 916.841 759.886C917.56 760.18 918.37 760.327 919.27 760.327C920.207 760.327 921.036 760.161 921.755 759.83C922.475 759.498 923.038 759.039 923.446 758.452C923.853 757.865 924.056 757.187 924.056 756.42C924.056 755.644 923.839 754.957 923.403 754.361C922.977 753.755 922.361 753.281 921.556 752.94C920.761 752.599 919.814 752.429 918.716 752.429H916.002V747.912H918.716C919.644 747.912 920.463 747.751 921.173 747.429C921.893 747.107 922.451 746.662 922.849 746.094C923.247 745.516 923.446 744.844 923.446 744.077C923.446 743.348 923.27 742.708 922.92 742.159C922.579 741.6 922.096 741.165 921.471 740.852C920.856 740.54 920.136 740.384 919.312 740.384C918.479 740.384 917.717 740.535 917.025 740.838C916.334 741.132 915.78 741.553 915.363 742.102C914.947 742.652 914.724 743.295 914.696 744.034H908.801C908.829 742.358 909.307 740.881 910.235 739.602C911.163 738.324 912.413 737.325 913.985 736.605C915.567 735.876 917.352 735.511 919.341 735.511C921.348 735.511 923.105 735.876 924.61 736.605C926.116 737.334 927.286 738.319 928.119 739.56C928.962 740.791 929.378 742.173 929.369 743.707C929.378 745.336 928.872 746.695 927.849 747.784C926.836 748.873 925.515 749.564 923.886 749.858V750.085C926.026 750.36 927.655 751.103 928.772 752.315C929.899 753.518 930.458 755.024 930.449 756.832C930.458 758.49 929.98 759.962 929.014 761.25C928.057 762.538 926.736 763.551 925.051 764.29C923.365 765.028 921.433 765.398 919.255 765.398ZM946.276 765.639C943.833 765.63 941.73 765.028 939.969 763.835C938.217 762.642 936.868 760.914 935.921 758.651C934.983 756.387 934.519 753.665 934.529 750.483C934.529 747.311 934.998 744.607 935.935 742.372C936.882 740.137 938.231 738.437 939.983 737.273C941.745 736.098 943.842 735.511 946.276 735.511C948.71 735.511 950.802 736.098 952.554 737.273C954.316 738.447 955.67 740.152 956.617 742.386C957.564 744.612 958.033 747.311 958.023 750.483C958.023 753.674 957.55 756.402 956.603 758.665C955.665 760.928 954.32 762.656 952.569 763.849C950.817 765.043 948.719 765.639 946.276 765.639ZM946.276 760.54C947.943 760.54 949.273 759.702 950.267 758.026C951.262 756.349 951.754 753.835 951.745 750.483C951.745 748.277 951.517 746.439 951.063 744.972C950.618 743.504 949.983 742.401 949.159 741.662C948.345 740.923 947.384 740.554 946.276 740.554C944.619 740.554 943.293 741.383 942.299 743.04C941.304 744.697 940.802 747.178 940.793 750.483C940.793 752.718 941.016 754.583 941.461 756.08C941.915 757.566 942.554 758.684 943.378 759.432C944.202 760.17 945.168 760.54 946.276 760.54Z" fill="#FA8F00"/>
<line x1="438" y1="247.5" x2="535" y2="247.5" stroke="#737370" stroke-width="5" stroke-dasharray="10 10"/>
<line x1="876" y1="247.5" x2="973" y2="247.5" stroke="#737370" stroke-width="5" stroke-dasharray="10 10"/>
<path d="M88.6882 1288V1266.18H94.4553V1270.03H94.7109C95.1655 1268.75 95.9231 1267.74 96.9837 1267.01C98.0443 1266.27 99.3132 1265.9 100.79 1265.9C102.287 1265.9 103.56 1266.27 104.612 1267.02C105.663 1267.76 106.363 1268.76 106.714 1270.03H106.941C107.386 1268.78 108.191 1267.78 109.356 1267.03C110.53 1266.28 111.917 1265.9 113.518 1265.9C115.554 1265.9 117.206 1266.55 118.475 1267.84C119.754 1269.13 120.393 1270.96 120.393 1273.33V1288H114.356V1274.52C114.356 1273.31 114.034 1272.4 113.39 1271.79C112.746 1271.19 111.941 1270.88 110.975 1270.88C109.877 1270.88 109.02 1271.23 108.404 1271.93C107.789 1272.63 107.481 1273.54 107.481 1274.68V1288H101.614V1274.39C101.614 1273.32 101.307 1272.47 100.691 1271.84C100.085 1271.2 99.2848 1270.88 98.2905 1270.88C97.6181 1270.88 97.0121 1271.05 96.4723 1271.39C95.942 1271.73 95.5206 1272.2 95.2081 1272.8C94.8956 1273.4 94.7393 1274.1 94.7393 1274.9V1288H88.6882ZM136.17 1258.91V1288H130.02V1264.75H129.849L123.188 1268.92V1263.47L130.389 1258.91H136.17Z" fill="#737370"/>
<path d="M893.489 1288V1266.18H899.256V1270.03H899.512C899.966 1268.75 900.724 1267.74 901.784 1267.01C902.845 1266.27 904.114 1265.9 905.591 1265.9C907.087 1265.9 908.361 1266.27 909.412 1267.02C910.463 1267.76 911.164 1268.76 911.515 1270.03H911.742C912.187 1268.78 912.992 1267.78 914.157 1267.03C915.331 1266.28 916.718 1265.9 918.319 1265.9C920.355 1265.9 922.007 1266.55 923.276 1267.84C924.554 1269.13 925.194 1270.96 925.194 1273.33V1288H919.157V1274.52C919.157 1273.31 918.835 1272.4 918.191 1271.79C917.547 1271.19 916.742 1270.88 915.776 1270.88C914.677 1270.88 913.82 1271.23 913.205 1271.93C912.589 1272.63 912.282 1273.54 912.282 1274.68V1288H906.415V1274.39C906.415 1273.32 906.107 1272.47 905.492 1271.84C904.886 1271.2 904.086 1270.88 903.091 1270.88C902.419 1270.88 901.813 1271.05 901.273 1271.39C900.743 1271.73 900.321 1272.2 900.009 1272.8C899.696 1273.4 899.54 1274.1 899.54 1274.9V1288H893.489ZM940.669 1288.4C938.548 1288.4 936.659 1288.03 935.002 1287.3C933.354 1286.57 932.052 1285.55 931.096 1284.26C930.149 1282.97 929.661 1281.47 929.632 1279.78H935.826C935.864 1280.49 936.096 1281.11 936.522 1281.65C936.957 1282.18 937.535 1282.59 938.255 1282.89C938.974 1283.18 939.784 1283.33 940.684 1283.33C941.621 1283.33 942.45 1283.16 943.169 1282.83C943.889 1282.5 944.453 1282.04 944.86 1281.45C945.267 1280.86 945.471 1280.19 945.471 1279.42C945.471 1278.64 945.253 1277.96 944.817 1277.36C944.391 1276.75 943.775 1276.28 942.971 1275.94C942.175 1275.6 941.228 1275.43 940.13 1275.43H937.417V1270.91H940.13C941.058 1270.91 941.877 1270.75 942.587 1270.43C943.307 1270.11 943.865 1269.66 944.263 1269.09C944.661 1268.52 944.86 1267.84 944.86 1267.08C944.86 1266.35 944.685 1265.71 944.334 1265.16C943.993 1264.6 943.51 1264.16 942.885 1263.85C942.27 1263.54 941.55 1263.38 940.726 1263.38C939.893 1263.38 939.131 1263.54 938.439 1263.84C937.748 1264.13 937.194 1264.55 936.777 1265.1C936.361 1265.65 936.138 1266.3 936.11 1267.03H930.215C930.243 1265.36 930.721 1263.88 931.65 1262.6C932.578 1261.32 933.828 1260.32 935.4 1259.61C936.981 1258.88 938.766 1258.51 940.755 1258.51C942.762 1258.51 944.519 1258.88 946.025 1259.61C947.53 1260.33 948.7 1261.32 949.533 1262.56C950.376 1263.79 950.792 1265.17 950.783 1266.71C950.792 1268.34 950.286 1269.7 949.263 1270.78C948.25 1271.87 946.929 1272.56 945.3 1272.86V1273.09C947.44 1273.36 949.069 1274.1 950.186 1275.32C951.313 1276.52 951.872 1278.02 951.863 1279.83C951.872 1281.49 951.394 1282.96 950.428 1284.25C949.471 1285.54 948.15 1286.55 946.465 1287.29C944.779 1288.03 942.847 1288.4 940.669 1288.4Z" fill="#737370"/>
<path d="M516.075 1288V1266.18H521.842V1270.03H522.098C522.552 1268.75 523.31 1267.74 524.37 1267.01C525.431 1266.27 526.7 1265.9 528.177 1265.9C529.673 1265.9 530.947 1266.27 531.998 1267.02C533.049 1267.76 533.75 1268.76 534.1 1270.03H534.328C534.773 1268.78 535.578 1267.78 536.743 1267.03C537.917 1266.28 539.304 1265.9 540.904 1265.9C542.94 1265.9 544.593 1266.55 545.862 1267.84C547.14 1269.13 547.779 1270.96 547.779 1273.33V1288H541.743V1274.52C541.743 1273.31 541.421 1272.4 540.777 1271.79C540.133 1271.19 539.328 1270.88 538.362 1270.88C537.263 1270.88 536.406 1271.23 535.791 1271.93C535.175 1272.63 534.868 1273.54 534.868 1274.68V1288H529.001V1274.39C529.001 1273.32 528.693 1272.47 528.078 1271.84C527.472 1271.2 526.672 1270.88 525.677 1270.88C525.005 1270.88 524.399 1271.05 523.859 1271.39C523.329 1271.73 522.907 1272.2 522.595 1272.8C522.282 1273.4 522.126 1274.1 522.126 1274.9V1288H516.075ZM552.502 1288V1283.57L562.858 1273.98C563.738 1273.13 564.477 1272.36 565.074 1271.68C565.68 1271 566.139 1270.33 566.451 1269.68C566.764 1269.01 566.92 1268.3 566.92 1267.53C566.92 1266.68 566.726 1265.95 566.338 1265.33C565.949 1264.7 565.419 1264.23 564.747 1263.89C564.074 1263.55 563.312 1263.38 562.46 1263.38C561.57 1263.38 560.793 1263.56 560.13 1263.92C559.467 1264.28 558.956 1264.8 558.596 1265.47C558.236 1266.14 558.056 1266.94 558.056 1267.87H552.218C552.218 1265.97 552.649 1264.32 553.511 1262.91C554.373 1261.51 555.58 1260.43 557.133 1259.66C558.686 1258.89 560.476 1258.51 562.502 1258.51C564.586 1258.51 566.399 1258.88 567.943 1259.62C569.496 1260.35 570.703 1261.36 571.565 1262.66C572.427 1263.96 572.858 1265.44 572.858 1267.12C572.858 1268.22 572.64 1269.3 572.204 1270.37C571.778 1271.44 571.016 1272.63 569.917 1273.94C568.819 1275.23 567.27 1276.79 565.272 1278.61L561.025 1282.77V1282.97H573.241V1288H552.502Z" fill="#737370"/>
</svg>
